<svg width="768" height="437" viewBox="0 0 768 437" fill="none" xmlns="http://www.w3.org/2000/svg">
<rect width="768" height="432" rx="4" fill="#191919"/>
<mask id="mask0_0_73" style="mask-type:alpha" maskUnits="userSpaceOnUse" x="0" y="0" width="768" height="432">
<rect width="768" height="432" rx="4" fill="white"/>
</mask>
<g mask="url(#mask0_0_73)">
</g>
<g clip-path="url(#clip0_0_73)">
<circle cx="384" cy="216" r="128" fill="url(#paint0_linear_0_73)" fill-opacity="0.04"/>
<circle cx="384" cy="216" r="96" fill="url(#paint1_linear_0_73)" fill-opacity="0.16"/>
<g filter="url(#filter0_d_0_73)">
<circle cx="384" cy="216" r="64" fill="url(#paint2_radial_0_73)"/>
</g>
<path opacity="0.48" d="M90 369H630" stroke="url(#paint3_linear_0_73)"/>
<path opacity="0.48" d="M90 64H630" stroke="url(#paint4_linear_0_73)"/>
<path opacity="0.48" d="M544 -240V300" stroke="url(#paint5_linear_0_73)"/>
<path opacity="0.48" d="M224 132L224 672" stroke="url(#paint6_linear_0_73)"/>
<path opacity="0.48" d="M172.828 81.6562C172.964 83.6042 173.078 85.8594 173.172 88.4219C173.109 88.7448 172.859 88.9062 172.422 88.9062C172.307 88.9062 172.188 88.8854 172.062 88.8438C171.948 88.7917 171.875 88.724 171.844 88.6406V81.6562H172.828ZM171.375 79.5312C171.375 79.1667 171.589 78.9844 172.016 78.9844C172.297 78.9844 172.526 79.0469 172.703 79.1719C172.734 79.2865 172.75 79.401 172.75 79.5156C172.75 79.6198 172.708 79.724 172.625 79.8281C172.542 79.9323 172.417 79.9844 172.25 79.9844C172.083 79.9844 171.917 79.9479 171.75 79.875C171.583 79.7917 171.458 79.6771 171.375 79.5312ZM180.188 85.5781C180.188 84.3385 180.12 83.4271 179.984 82.8438C180.068 82.6875 179.943 82.6094 179.609 82.6094C179.255 82.6094 178.797 82.6979 178.234 82.875C177.672 83.0521 177.214 83.2292 176.859 83.4062C176.016 83.8125 175.547 84.2083 175.453 84.5938V88.8438H174.406C174.271 88.4896 174.203 87.4948 174.203 85.8594C174.203 84.401 174.229 83.3281 174.281 82.6406C174.344 81.9531 174.391 81.5625 174.422 81.4688C174.693 81.2917 174.911 81.2031 175.078 81.2031C175.339 81.2031 175.469 81.5104 175.469 82.125C175.469 82.3646 175.453 82.599 175.422 82.8281C175.401 83.0469 175.391 83.1979 175.391 83.2812C177.078 82.0417 178.385 81.4219 179.312 81.4219C180.365 81.4219 180.964 82.2708 181.109 83.9688C181.172 84.5625 181.203 85.3854 181.203 86.4375L181.188 87.6719C181.188 88.1302 181.198 88.5729 181.219 89C181.115 89.0625 181.031 89.0938 180.969 89.0938C180.938 89.0833 180.87 89.0677 180.766 89.0469C180.661 89.026 180.526 89.0104 180.359 89C180.255 88.5833 180.198 88.1615 180.188 87.7344C180.177 87.2969 180.172 86.8958 180.172 86.5312L180.188 85.5781ZM187.688 84.9688C188.833 84.9688 189.406 85.2604 189.406 85.8438C189.406 86.2812 189.089 86.7917 188.453 87.375C187.505 88.2396 186.229 88.9323 184.625 89.4531C184.552 89.4531 184.469 89.3802 184.375 89.2344C184.292 89.0885 184.224 88.9792 184.172 88.9062C184.13 88.8229 184.099 88.7708 184.078 88.75C185.276 88.3542 186.26 87.875 187.031 87.3125C187.552 86.9375 187.812 86.6302 187.812 86.3906C187.812 86.151 187.505 86.0312 186.891 86.0312C186.276 86.0312 185.375 86.1771 184.188 86.4688C183.646 86.4479 183.177 86.2552 182.781 85.8906C182.438 85.5677 182.266 85.2448 182.266 84.9219C182.266 84.5885 182.359 84.2865 182.547 84.0156C182.734 83.7344 182.984 83.474 183.297 83.2344C183.609 82.9948 183.974 82.776 184.391 82.5781C185.411 82.0885 186.469 81.8438 187.562 81.8438C187.885 81.8438 188.198 81.875 188.5 81.9375C188.75 81.9375 188.896 82.0469 188.938 82.2656C188.979 82.4844 189 82.8438 189 83.3438C188.385 83.0625 187.693 82.9219 186.922 82.9219C185.964 82.9219 185.172 83.1146 184.547 83.5C183.901 83.875 183.568 84.3646 183.547 84.9688C183.547 85.2604 183.76 85.4062 184.188 85.4062L185.328 85.2812C186.307 85.0729 187.094 84.9688 187.688 84.9688ZM193.812 87.9062C194.729 87.9062 196.109 87.4896 197.953 86.6562C198.068 86.6562 198.161 86.6979 198.234 86.7812C198.307 86.8542 198.344 86.9427 198.344 87.0469C197.927 87.7552 197.13 88.3073 195.953 88.7031C194.776 89.099 193.677 89.1667 192.656 88.9062C191.5 88.6042 190.797 87.9531 190.547 86.9531C190.526 86.7552 190.516 86.4896 190.516 86.1562C190.516 85.8229 190.599 85.3854 190.766 84.8438C190.943 84.2917 191.24 83.7708 191.656 83.2812C192.073 82.7917 192.562 82.4062 193.125 82.125C193.688 81.8438 194.286 81.7031 194.922 81.7031C195.526 81.7031 196.203 81.9115 196.953 82.3281C197.307 82.526 197.589 82.75 197.797 83C198.005 83.25 198.109 83.5052 198.109 83.7656C198.109 83.8385 198.104 83.9115 198.094 83.9844C198.073 84.6198 197.766 85.0208 197.172 85.1875C196.911 85.2604 196.609 85.2969 196.266 85.2969L194.016 85.2031C193.266 85.2031 192.693 85.3646 192.297 85.6875C192.068 85.8646 191.906 86.1302 191.812 86.4844C192.073 87.4323 192.74 87.9062 193.812 87.9062ZM196.594 83.0781C196.365 82.9115 196.125 82.7917 195.875 82.7188C195.625 82.6458 195.417 82.6094 195.25 82.6094C195.083 82.6094 194.812 82.6667 194.438 82.7812C194.062 82.8854 193.729 83.0052 193.438 83.1406C192.719 83.474 192.359 83.8229 192.359 84.1875C193.193 84.2604 193.818 84.2969 194.234 84.2969C195.391 84.2969 196.172 84.1979 196.578 84C196.828 83.8958 196.953 83.7656 196.953 83.6094C196.953 83.4219 196.833 83.2448 196.594 83.0781ZM207.203 83.2969C206.766 82.9844 206.203 82.8281 205.516 82.8281C204.87 82.8281 204.271 82.9479 203.719 83.1875C202.677 83.625 201.964 84.1875 201.578 84.875C201.411 85.1875 201.328 85.5208 201.328 85.875C201.328 85.9375 201.328 86.1146 201.328 86.4062C201.328 86.6875 201.38 87.0729 201.484 87.5625C201.589 88.0417 201.641 88.5312 201.641 89.0312C201.422 89.0417 201.245 89.0677 201.109 89.1094C200.974 89.151 200.859 89.1719 200.766 89.1719C200.672 89.1719 200.589 89.1302 200.516 89.0469C200.453 88.9635 200.38 88.8021 200.297 88.5625C200.286 88.5 200.266 88.3229 200.234 88.0312C200.203 87.7396 200.161 87.3854 200.109 86.9688C200.068 86.5521 200.016 86.099 199.953 85.6094C199.901 85.1094 199.849 84.6198 199.797 84.1406C199.682 83.099 199.594 82.3333 199.531 81.8438C199.531 81.5938 199.714 81.4688 200.078 81.4688C200.297 81.4688 200.469 81.5625 200.594 81.75C200.719 81.9271 200.818 82.1354 200.891 82.375C200.964 82.6042 201.01 82.8333 201.031 83.0625C201.062 83.2917 201.089 83.4531 201.109 83.5469C202.484 82.3177 204.193 81.7031 206.234 81.7031C206.464 81.7031 206.703 81.7083 206.953 81.7188C207.016 81.7083 207.094 81.7031 207.188 81.7031C207.281 81.7031 207.375 81.7656 207.469 81.8906C207.583 82.0365 207.641 82.2135 207.641 82.4219C207.641 82.9427 207.495 83.2344 207.203 83.2969ZM210.969 87.5L211 85C211 84.6042 210.964 84.2656 210.891 83.9844H208.469L208.438 82.9062H210.781V78.875C210.812 78.7812 210.875 78.6875 210.969 78.5938C211.115 78.4479 211.234 78.375 211.328 78.375C211.432 78.375 211.521 78.3854 211.594 78.4062C211.667 78.4271 211.745 78.5 211.828 78.625C211.995 79.3125 212.078 80.349 212.078 81.7344C212.078 82.0781 212.094 82.4167 212.125 82.75C212.458 82.7083 212.792 82.6875 213.125 82.6875C213.125 82.6875 213.396 82.6875 213.938 82.6875C214.135 82.6875 214.318 82.6771 214.484 82.6562L214.438 83.7812L212.156 83.7188L212.234 89.1094C212.047 89.1927 211.885 89.2344 211.75 89.2344C211.229 89.2344 210.969 88.6562 210.969 87.5ZM216.109 87.0312C216.109 86.875 216.177 86.724 216.312 86.5781C216.458 86.4323 216.62 86.3594 216.797 86.3594C216.974 86.3594 217.109 86.4167 217.203 86.5312C217.297 86.6458 217.344 86.7708 217.344 86.9062C217.344 87.0312 217.292 87.151 217.188 87.2656C217.094 87.3698 217.005 87.4219 216.922 87.4219C216.839 87.4219 216.76 87.4219 216.688 87.4219C216.625 87.4219 216.51 87.3958 216.344 87.3438C216.188 87.2917 216.109 87.1875 216.109 87.0312ZM215.609 84.0312C215.464 83.9896 215.391 83.9115 215.391 83.7969C215.391 83.6406 215.469 83.5104 215.625 83.4062C215.781 83.3021 215.906 83.2448 216 83.2344C216.323 83.276 216.526 83.3594 216.609 83.4844C216.703 83.599 216.75 83.6927 216.75 83.7656C216.75 83.9844 216.615 84.125 216.344 84.1875C216.302 84.2083 216.224 84.2188 216.109 84.2188C216.005 84.2188 215.839 84.1562 215.609 84.0312ZM231.219 87.3594C231.646 87.1823 232.062 87.0208 232.469 86.875C232.875 86.7292 233.26 86.6562 233.625 86.6562C234 86.6562 234.188 86.7708 234.188 87C234.188 87.0521 234.172 87.1354 234.141 87.25C234.12 87.3542 233.979 87.4844 233.719 87.6406C233.469 87.7865 233.156 87.9271 232.781 88.0625C232.417 88.1979 232.016 88.3229 231.578 88.4375C231.141 88.5521 230.714 88.651 230.297 88.7344C229.432 88.9115 228.818 89 228.453 89C228.089 89 227.693 88.9583 227.266 88.875C226.849 88.7917 226.458 88.6562 226.094 88.4688C225.25 88.0312 224.828 87.3854 224.828 86.5312C224.828 86.4688 224.828 86.3438 224.828 86.1562C224.828 85.9688 224.906 85.7031 225.062 85.3594C225.219 85.0052 225.453 84.6562 225.766 84.3125C226.078 83.9583 226.443 83.6354 226.859 83.3438C227.734 82.7188 228.651 82.3125 229.609 82.125C229.943 82.0521 230.219 82.0156 230.438 82.0156C230.667 82.0156 230.854 82.0208 231 82.0312C231.146 82.0312 231.297 82.0417 231.453 82.0625C231.609 82.0729 231.745 82.1094 231.859 82.1719C232.13 82.3073 232.266 82.5729 232.266 82.9688C232.266 83.2188 232.089 83.4635 231.734 83.7031C231.641 83.7656 231.557 83.8229 231.484 83.875C231.432 83.6354 231.365 83.4323 231.281 83.2656C231.198 83.099 231.016 83.0156 230.734 83.0156C229.505 83.276 228.448 83.6667 227.562 84.1875C226.562 84.7812 226.062 85.4062 226.062 86.0625C226.062 86.1354 226.068 86.2135 226.078 86.2969C226.078 86.9635 226.333 87.4375 226.844 87.7188C227.229 87.9271 227.724 88.0312 228.328 88.0312C228.943 88.0312 229.474 87.9635 229.922 87.8281C230.37 87.6823 230.802 87.526 231.219 87.3594ZM236.688 81.6562C236.823 83.6042 236.938 85.8594 237.031 88.4219C236.969 88.7448 236.719 88.9062 236.281 88.9062C236.167 88.9062 236.047 88.8854 235.922 88.8438C235.807 88.7917 235.734 88.724 235.703 88.6406V81.6562H236.688ZM235.234 79.5312C235.234 79.1667 235.448 78.9844 235.875 78.9844C236.156 78.9844 236.385 79.0469 236.562 79.1719C236.594 79.2865 236.609 79.401 236.609 79.5156C236.609 79.6198 236.568 79.724 236.484 79.8281C236.401 79.9323 236.276 79.9844 236.109 79.9844C235.943 79.9844 235.776 79.9479 235.609 79.875C235.443 79.7917 235.318 79.6771 235.234 79.5312ZM245.625 83.2969C245.188 82.9844 244.625 82.8281 243.938 82.8281C243.292 82.8281 242.693 82.9479 242.141 83.1875C241.099 83.625 240.385 84.1875 240 84.875C239.833 85.1875 239.75 85.5208 239.75 85.875C239.75 85.9375 239.75 86.1146 239.75 86.4062C239.75 86.6875 239.802 87.0729 239.906 87.5625C240.01 88.0417 240.062 88.5312 240.062 89.0312C239.844 89.0417 239.667 89.0677 239.531 89.1094C239.396 89.151 239.281 89.1719 239.188 89.1719C239.094 89.1719 239.01 89.1302 238.938 89.0469C238.875 88.9635 238.802 88.8021 238.719 88.5625C238.708 88.5 238.688 88.3229 238.656 88.0312C238.625 87.7396 238.583 87.3854 238.531 86.9688C238.49 86.5521 238.438 86.099 238.375 85.6094C238.323 85.1094 238.271 84.6198 238.219 84.1406C238.104 83.099 238.016 82.3333 237.953 81.8438C237.953 81.5938 238.135 81.4688 238.5 81.4688C238.719 81.4688 238.891 81.5625 239.016 81.75C239.141 81.9271 239.24 82.1354 239.312 82.375C239.385 82.6042 239.432 82.8333 239.453 83.0625C239.484 83.2917 239.51 83.4531 239.531 83.5469C240.906 82.3177 242.615 81.7031 244.656 81.7031C244.885 81.7031 245.125 81.7083 245.375 81.7188C245.438 81.7083 245.516 81.7031 245.609 81.7031C245.703 81.7031 245.797 81.7656 245.891 81.8906C246.005 82.0365 246.062 82.2135 246.062 82.4219C246.062 82.9427 245.917 83.2344 245.625 83.2969ZM253.344 87.3594C253.771 87.1823 254.188 87.0208 254.594 86.875C255 86.7292 255.385 86.6562 255.75 86.6562C256.125 86.6562 256.312 86.7708 256.312 87C256.312 87.0521 256.297 87.1354 256.266 87.25C256.245 87.3542 256.104 87.4844 255.844 87.6406C255.594 87.7865 255.281 87.9271 254.906 88.0625C254.542 88.1979 254.141 88.3229 253.703 88.4375C253.266 88.5521 252.839 88.651 252.422 88.7344C251.557 88.9115 250.943 89 250.578 89C250.214 89 249.818 88.9583 249.391 88.875C248.974 88.7917 248.583 88.6562 248.219 88.4688C247.375 88.0312 246.953 87.3854 246.953 86.5312C246.953 86.4688 246.953 86.3438 246.953 86.1562C246.953 85.9688 247.031 85.7031 247.188 85.3594C247.344 85.0052 247.578 84.6562 247.891 84.3125C248.203 83.9583 248.568 83.6354 248.984 83.3438C249.859 82.7188 250.776 82.3125 251.734 82.125C252.068 82.0521 252.344 82.0156 252.562 82.0156C252.792 82.0156 252.979 82.0208 253.125 82.0312C253.271 82.0312 253.422 82.0417 253.578 82.0625C253.734 82.0729 253.87 82.1094 253.984 82.1719C254.255 82.3073 254.391 82.5729 254.391 82.9688C254.391 83.2188 254.214 83.4635 253.859 83.7031C253.766 83.7656 253.682 83.8229 253.609 83.875C253.557 83.6354 253.49 83.4323 253.406 83.2656C253.323 83.099 253.141 83.0156 252.859 83.0156C251.63 83.276 250.573 83.6667 249.688 84.1875C248.688 84.7812 248.188 85.4062 248.188 86.0625C248.188 86.1354 248.193 86.2135 248.203 86.2969C248.203 86.9635 248.458 87.4375 248.969 87.7188C249.354 87.9271 249.849 88.0312 250.453 88.0312C251.068 88.0312 251.599 87.9635 252.047 87.8281C252.495 87.6823 252.927 87.526 253.344 87.3594ZM257.688 82.9375C257.667 82.375 257.646 81.875 257.625 81.4375C257.604 80.9896 257.589 80.6615 257.578 80.4531C257.578 80.2344 257.495 79.7083 257.328 78.875C257.422 78.75 257.51 78.6302 257.594 78.5156C257.688 78.401 257.818 78.3438 257.984 78.3438C258.349 78.3438 258.63 79.8802 258.828 82.9531C258.932 84.7344 258.984 86.5156 258.984 88.2969C258.984 88.776 258.651 89.0156 257.984 89.0156L257.859 89C257.859 88.4583 257.844 87.7656 257.812 86.9219C257.781 86.0781 257.755 85.3438 257.734 84.7188C257.724 84.0938 257.708 83.5 257.688 82.9375ZM263.359 87.9062C264.276 87.9062 265.656 87.4896 267.5 86.6562C267.615 86.6562 267.708 86.6979 267.781 86.7812C267.854 86.8542 267.891 86.9427 267.891 87.0469C267.474 87.7552 266.677 88.3073 265.5 88.7031C264.323 89.099 263.224 89.1667 262.203 88.9062C261.047 88.6042 260.344 87.9531 260.094 86.9531C260.073 86.7552 260.062 86.4896 260.062 86.1562C260.062 85.8229 260.146 85.3854 260.312 84.8438C260.49 84.2917 260.786 83.7708 261.203 83.2812C261.62 82.7917 262.109 82.4062 262.672 82.125C263.234 81.8438 263.833 81.7031 264.469 81.7031C265.073 81.7031 265.75 81.9115 266.5 82.3281C266.854 82.526 267.135 82.75 267.344 83C267.552 83.25 267.656 83.5052 267.656 83.7656C267.656 83.8385 267.651 83.9115 267.641 83.9844C267.62 84.6198 267.312 85.0208 266.719 85.1875C266.458 85.2604 266.156 85.2969 265.812 85.2969L263.562 85.2031C262.812 85.2031 262.24 85.3646 261.844 85.6875C261.615 85.8646 261.453 86.1302 261.359 86.4844C261.62 87.4323 262.286 87.9062 263.359 87.9062ZM266.141 83.0781C265.911 82.9115 265.672 82.7917 265.422 82.7188C265.172 82.6458 264.964 82.6094 264.797 82.6094C264.63 82.6094 264.359 82.6667 263.984 82.7812C263.609 82.8854 263.276 83.0052 262.984 83.1406C262.266 83.474 261.906 83.8229 261.906 84.1875C262.74 84.2604 263.365 84.2969 263.781 84.2969C264.938 84.2969 265.719 84.1979 266.125 84C266.375 83.8958 266.5 83.7656 266.5 83.6094C266.5 83.4219 266.38 83.2448 266.141 83.0781Z" fill="white"/>
<path opacity="0.48" d="M511.438 353.75C511.438 353.552 511.443 353.245 511.453 352.828C511.474 352.401 511.49 351.922 511.5 351.391C511.521 350.859 511.542 350.302 511.562 349.719C511.583 349.135 511.599 348.578 511.609 348.047C511.63 347.516 511.646 347.042 511.656 346.625C511.667 346.208 511.677 345.896 511.688 345.688C511.667 345.458 511.708 345.312 511.812 345.25C511.917 345.188 512.031 345.156 512.156 345.156C512.292 345.156 512.406 345.167 512.5 345.188C512.604 345.208 512.677 345.292 512.719 345.438L512.469 353.469C512.448 353.656 512.302 353.792 512.031 353.875C511.76 353.948 511.562 353.906 511.438 353.75ZM521.703 351.391C522.047 351.391 522.219 351.521 522.219 351.781C522.219 352.042 522.104 352.234 521.875 352.359C521.646 352.474 521.385 352.557 521.094 352.609C520.812 352.661 520.547 352.693 520.297 352.703C520.047 352.703 519.885 352.714 519.812 352.734C519.75 352.745 519.599 352.786 519.359 352.859C519.13 352.922 518.854 353 518.531 353.094C518.208 353.177 517.859 353.271 517.484 353.375C516.307 353.688 515.37 353.844 514.672 353.844C514.318 353.844 514.078 353.792 513.953 353.688C513.839 353.573 513.818 353.417 513.891 353.219C514.672 352.531 515.484 351.646 516.328 350.562C517.589 348.948 518.219 347.688 518.219 346.781C518.219 346.604 518.193 346.438 518.141 346.281C518.026 345.958 517.729 345.75 517.25 345.656C516.792 345.656 516.417 345.75 516.125 345.938C515.833 346.125 515.557 346.333 515.297 346.562C515.047 346.792 514.786 347 514.516 347.188C514.255 347.375 513.932 347.469 513.547 347.469C513.557 347.125 513.698 346.792 513.969 346.469C514.51 345.802 515.276 345.323 516.266 345.031C516.62 344.917 516.901 344.859 517.109 344.859C517.318 344.859 517.474 344.865 517.578 344.875C517.984 344.917 518.333 345.062 518.625 345.312C518.917 345.562 519.089 345.948 519.141 346.469C519.141 347.938 518.453 349.568 517.078 351.359C516.703 351.849 516.333 352.302 515.969 352.719C516.083 352.729 516.26 352.734 516.5 352.734C516.75 352.734 517.089 352.677 517.516 352.562C517.943 352.438 518.396 352.292 518.875 352.125C519.354 351.948 519.828 351.781 520.297 351.625C520.766 351.469 521.234 351.391 521.703 351.391ZM530.828 344.781C531.151 344.885 531.406 345.042 531.594 345.25C531.792 345.448 531.885 345.776 531.875 346.234C531.865 346.693 531.604 347.208 531.094 347.781C531.698 348.021 532.083 348.24 532.25 348.438C532.417 348.635 532.526 348.844 532.578 349.062C532.641 349.271 532.672 349.531 532.672 349.844C532.672 350.552 532.484 351.172 532.109 351.703C531.745 352.224 531.281 352.656 530.719 353C530.156 353.344 529.536 353.599 528.859 353.766C528.193 353.932 527.615 354.016 527.125 354.016C526.635 354.016 526.161 353.984 525.703 353.922C525.255 353.849 524.833 353.724 524.438 353.547C523.51 353.13 523.047 352.505 523.047 351.672C523.047 351.411 523.13 351.156 523.297 350.906C523.464 350.646 523.641 350.401 523.828 350.172C524.026 349.943 524.208 349.729 524.375 349.531C524.542 349.323 524.625 349.146 524.625 349C524.625 348.844 524.594 348.719 524.531 348.625C524.479 348.521 524.417 348.422 524.344 348.328C524.156 348.089 524.062 347.823 524.062 347.531C524.062 347.24 524.146 346.948 524.312 346.656C524.479 346.365 524.698 346.109 524.969 345.891C525.25 345.661 525.568 345.469 525.922 345.312C526.276 345.146 526.635 345.01 527 344.906C527.708 344.719 528.385 344.625 529.031 344.625C529.917 344.625 530.516 344.677 530.828 344.781ZM524.312 351.5C524.312 352.198 524.667 352.688 525.375 352.969C525.865 353.156 526.453 353.25 527.141 353.25C527.828 353.25 528.432 353.177 528.953 353.031C529.474 352.885 529.932 352.667 530.328 352.375C531.214 351.74 531.656 350.885 531.656 349.812C531.406 348.969 530.62 348.547 529.297 348.547C528.38 348.547 527.469 348.75 526.562 349.156C525.698 349.552 525.068 350.026 524.672 350.578C524.464 350.87 524.344 351.177 524.312 351.5ZM530.594 345.656C530.146 345.458 529.589 345.359 528.922 345.359C527.474 345.359 526.422 345.719 525.766 346.438C525.536 346.688 525.401 346.99 525.359 347.344C525.359 347.656 525.458 347.896 525.656 348.062C525.854 348.219 526.109 348.297 526.422 348.297C526.474 348.307 526.552 348.312 526.656 348.312C526.771 348.312 526.953 348.292 527.203 348.25C527.453 348.198 527.745 348.125 528.078 348.031C528.411 347.938 528.745 347.828 529.078 347.703C529.422 347.568 529.734 347.427 530.016 347.281C530.641 346.948 531.005 346.641 531.109 346.359C531.109 346.182 531.068 346.021 530.984 345.875C530.901 345.729 530.771 345.656 530.594 345.656ZM540.391 353.531C540.901 353.021 541.417 352.438 541.938 351.781C542.458 351.125 542.776 350.688 542.891 350.469L541.578 349.031C541.411 348.854 541.25 348.677 541.094 348.5C540.938 348.323 540.797 348.167 540.672 348.031C540.547 347.896 540.448 347.781 540.375 347.688L540.266 347.562L541.172 346.594C541.641 347.167 541.984 347.604 542.203 347.906C542.432 348.198 542.615 348.432 542.75 348.609C542.979 348.901 543.312 349.26 543.75 349.688C543.896 349.479 544.156 349.104 544.531 348.562C545.156 347.635 545.656 346.948 546.031 346.5C546.271 346.5 546.464 346.583 546.609 346.75C546.755 346.917 546.828 347.073 546.828 347.219C546.557 347.802 546.167 348.417 545.656 349.062C545.469 349.292 545.297 349.516 545.141 349.734C544.984 349.943 544.859 350.172 544.766 350.422C545.401 350.87 546.161 351.63 547.047 352.703C547.245 352.943 547.385 353.125 547.469 353.25C547.469 353.323 547.411 353.432 547.297 353.578C547.12 353.828 546.964 353.984 546.828 354.047C546.63 353.953 546.422 353.786 546.203 353.547C545.995 353.297 545.771 353.026 545.531 352.734C545.292 352.443 545.042 352.151 544.781 351.859C544.531 351.568 544.266 351.328 543.984 351.141C543.745 351.411 543.411 351.802 542.984 352.312C542.203 353.25 541.682 353.812 541.422 354C541.224 354.042 540.943 353.948 540.578 353.719C540.484 353.667 540.422 353.604 540.391 353.531ZM554.859 353.75C554.859 353.552 554.865 353.245 554.875 352.828C554.896 352.401 554.911 351.922 554.922 351.391C554.943 350.859 554.964 350.302 554.984 349.719C555.005 349.135 555.021 348.578 555.031 348.047C555.052 347.516 555.068 347.042 555.078 346.625C555.089 346.208 555.099 345.896 555.109 345.688C555.089 345.458 555.13 345.312 555.234 345.25C555.339 345.188 555.453 345.156 555.578 345.156C555.714 345.156 555.828 345.167 555.922 345.188C556.026 345.208 556.099 345.292 556.141 345.438L555.891 353.469C555.87 353.656 555.724 353.792 555.453 353.875C555.182 353.948 554.984 353.906 554.859 353.75ZM565.125 351.391C565.469 351.391 565.641 351.521 565.641 351.781C565.641 352.042 565.526 352.234 565.297 352.359C565.068 352.474 564.807 352.557 564.516 352.609C564.234 352.661 563.969 352.693 563.719 352.703C563.469 352.703 563.307 352.714 563.234 352.734C563.172 352.745 563.021 352.786 562.781 352.859C562.552 352.922 562.276 353 561.953 353.094C561.63 353.177 561.281 353.271 560.906 353.375C559.729 353.688 558.792 353.844 558.094 353.844C557.74 353.844 557.5 353.792 557.375 353.688C557.26 353.573 557.24 353.417 557.312 353.219C558.094 352.531 558.906 351.646 559.75 350.562C561.01 348.948 561.641 347.688 561.641 346.781C561.641 346.604 561.615 346.438 561.562 346.281C561.448 345.958 561.151 345.75 560.672 345.656C560.214 345.656 559.839 345.75 559.547 345.938C559.255 346.125 558.979 346.333 558.719 346.562C558.469 346.792 558.208 347 557.938 347.188C557.677 347.375 557.354 347.469 556.969 347.469C556.979 347.125 557.12 346.792 557.391 346.469C557.932 345.802 558.698 345.323 559.688 345.031C560.042 344.917 560.323 344.859 560.531 344.859C560.74 344.859 560.896 344.865 561 344.875C561.406 344.917 561.755 345.062 562.047 345.312C562.339 345.562 562.51 345.948 562.562 346.469C562.562 347.938 561.875 349.568 560.5 351.359C560.125 351.849 559.755 352.302 559.391 352.719C559.505 352.729 559.682 352.734 559.922 352.734C560.172 352.734 560.51 352.677 560.938 352.562C561.365 352.438 561.818 352.292 562.297 352.125C562.776 351.948 563.25 351.781 563.719 351.625C564.188 351.469 564.656 351.391 565.125 351.391ZM574.25 344.781C574.573 344.885 574.828 345.042 575.016 345.25C575.214 345.448 575.307 345.776 575.297 346.234C575.286 346.693 575.026 347.208 574.516 347.781C575.12 348.021 575.505 348.24 575.672 348.438C575.839 348.635 575.948 348.844 576 349.062C576.062 349.271 576.094 349.531 576.094 349.844C576.094 350.552 575.906 351.172 575.531 351.703C575.167 352.224 574.703 352.656 574.141 353C573.578 353.344 572.958 353.599 572.281 353.766C571.615 353.932 571.036 354.016 570.547 354.016C570.057 354.016 569.583 353.984 569.125 353.922C568.677 353.849 568.255 353.724 567.859 353.547C566.932 353.13 566.469 352.505 566.469 351.672C566.469 351.411 566.552 351.156 566.719 350.906C566.885 350.646 567.062 350.401 567.25 350.172C567.448 349.943 567.63 349.729 567.797 349.531C567.964 349.323 568.047 349.146 568.047 349C568.047 348.844 568.016 348.719 567.953 348.625C567.901 348.521 567.839 348.422 567.766 348.328C567.578 348.089 567.484 347.823 567.484 347.531C567.484 347.24 567.568 346.948 567.734 346.656C567.901 346.365 568.12 346.109 568.391 345.891C568.672 345.661 568.99 345.469 569.344 345.312C569.698 345.146 570.057 345.01 570.422 344.906C571.13 344.719 571.807 344.625 572.453 344.625C573.339 344.625 573.938 344.677 574.25 344.781ZM567.734 351.5C567.734 352.198 568.089 352.688 568.797 352.969C569.286 353.156 569.875 353.25 570.562 353.25C571.25 353.25 571.854 353.177 572.375 353.031C572.896 352.885 573.354 352.667 573.75 352.375C574.635 351.74 575.078 350.885 575.078 349.812C574.828 348.969 574.042 348.547 572.719 348.547C571.802 348.547 570.891 348.75 569.984 349.156C569.12 349.552 568.49 350.026 568.094 350.578C567.885 350.87 567.766 351.177 567.734 351.5ZM574.016 345.656C573.568 345.458 573.01 345.359 572.344 345.359C570.896 345.359 569.844 345.719 569.188 346.438C568.958 346.688 568.823 346.99 568.781 347.344C568.781 347.656 568.88 347.896 569.078 348.062C569.276 348.219 569.531 348.297 569.844 348.297C569.896 348.307 569.974 348.312 570.078 348.312C570.193 348.312 570.375 348.292 570.625 348.25C570.875 348.198 571.167 348.125 571.5 348.031C571.833 347.938 572.167 347.828 572.5 347.703C572.844 347.568 573.156 347.427 573.438 347.281C574.062 346.948 574.427 346.641 574.531 346.359C574.531 346.182 574.49 346.021 574.406 345.875C574.323 345.729 574.193 345.656 574.016 345.656Z" fill="white"/>
<g filter="url(#filter1_d_0_73)">
<circle cx="537" cy="157" r="40" transform="rotate(35 537 157)" fill="#FBFBFB"/>
</g>
<path fill-rule="evenodd" clip-rule="evenodd" d="M546.177 143.894C538.969 138.846 528.941 140.614 523.894 147.823C519.821 153.639 520.148 161.192 524.104 166.526C524.702 167.067 525.177 166.911 525.464 166.502C525.693 166.174 526.267 165.355 527.013 164.29C522.753 162.528 523.794 159.472 523.794 159.472C524.253 157.596 523.638 156.556 523.638 156.556C522.983 154.876 524.294 155.794 524.294 155.794C525.547 156.794 525.424 158.539 525.424 158.539C525.194 161.308 527.48 162.053 528.528 162.299C529.184 161.537 529.995 161.251 530.552 161.153C527.833 158.76 525.605 155.491 529.104 150.494C530.079 149.102 531.43 148.217 532.881 147.89C532.946 147.447 533.454 145.85 535.453 144.564C535.453 144.564 536.748 144.982 538.14 148.398C539.434 148.816 540.557 149.48 541.703 150.283C542.85 151.086 543.8 151.995 544.693 152.987C548.437 153.045 549.273 154.118 549.273 154.118C548.748 156.436 547.339 157.403 547.027 157.673C547.216 159.148 546.904 160.639 545.872 162.113C542.373 167.11 538.539 166.135 535.361 164.397C535.565 165.151 535.401 166.257 534.541 167.486C533.336 169.206 532.304 170.681 532.017 171.09C531.788 171.418 531.747 171.999 532.459 172.376C538.824 174.27 546.034 171.993 550.106 166.177C555.154 158.969 553.386 148.941 546.177 143.894Z" fill="#333333"/>
<g filter="url(#filter2_d_0_73)">
<circle cx="228" cy="293" r="33" transform="rotate(45 228 293)" fill="#0070F4"/>
</g>
<path d="M235.778 285.222L232.243 288.757" stroke="#DFDFDF" stroke-width="2" stroke-linecap="square"/>
<path d="M223.757 297.243L220.222 300.778" stroke="#DFDFDF" stroke-width="2" stroke-linecap="square"/>
<circle cx="228" cy="293" r="6" transform="rotate(45 228 293)" stroke="white" stroke-width="2" stroke-linecap="square"/>
<path d="M498.769 253.494C498.32 253.172 498.218 252.547 498.54 252.098L503.787 244.787C504.109 244.338 504.734 244.235 505.183 244.557C505.632 244.879 505.734 245.504 505.412 245.953L500.748 252.452L507.247 257.117C507.696 257.439 507.798 258.064 507.476 258.512C507.154 258.961 506.529 259.064 506.081 258.742L498.769 253.494ZM587.765 184.717C588.692 185.091 588.692 185.092 588.692 185.093C588.691 185.093 588.691 185.094 588.691 185.096C588.69 185.098 588.688 185.101 588.687 185.105C588.683 185.113 588.679 185.125 588.673 185.14C588.66 185.169 588.642 185.213 588.618 185.269C588.571 185.383 588.5 185.549 588.405 185.764C588.216 186.196 587.931 186.826 587.547 187.629C586.778 189.235 585.609 191.536 584.002 194.326C580.789 199.906 575.821 207.454 568.798 215.339C554.748 231.113 532.451 248.255 499.514 253.668L499.19 251.695C531.566 246.374 553.476 229.534 567.304 214.009C574.22 206.245 579.109 198.814 582.269 193.328C583.848 190.586 584.994 188.331 585.743 186.765C586.118 185.983 586.393 185.373 586.574 184.961C586.664 184.754 586.731 184.598 586.775 184.494C586.797 184.442 586.813 184.403 586.823 184.378C586.829 184.365 586.832 184.356 586.835 184.35C586.836 184.347 586.837 184.345 586.837 184.344C586.838 184.343 586.838 184.343 586.838 184.343C586.838 184.343 586.838 184.343 587.765 184.717Z" fill="url(#paint7_linear_0_73)"/>
<path d="M253.836 209.241C254.321 209.506 254.499 210.113 254.234 210.598L249.917 218.495C249.652 218.979 249.044 219.157 248.559 218.892C248.075 218.627 247.897 218.02 248.162 217.535L252 210.516L244.98 206.678C244.496 206.413 244.318 205.805 244.583 205.321C244.847 204.836 245.455 204.658 245.94 204.923L253.836 209.241ZM173.886 288.351C172.919 288.092 172.92 288.092 172.92 288.091C172.92 288.09 172.92 288.089 172.921 288.088C172.921 288.085 172.922 288.082 172.923 288.078C172.926 288.069 172.929 288.057 172.933 288.042C172.942 288.011 172.954 287.966 172.971 287.906C173.005 287.788 173.055 287.615 173.122 287.389C173.258 286.938 173.463 286.278 173.747 285.434C174.315 283.746 175.195 281.32 176.45 278.355C178.959 272.425 182.969 264.328 188.98 255.645C201.002 238.276 221.044 218.545 253.075 209.158L253.638 211.078C222.152 220.304 202.457 239.689 190.624 256.783C184.706 265.332 180.759 273.304 178.292 279.134C177.058 282.049 176.196 284.426 175.643 286.071C175.366 286.894 175.167 287.533 175.038 287.964C174.973 288.179 174.926 288.343 174.895 288.452C174.88 288.506 174.869 288.546 174.861 288.573C174.858 288.586 174.855 288.596 174.854 288.602C174.853 288.605 174.852 288.607 174.852 288.608C174.852 288.609 174.852 288.609 174.851 288.609C174.851 288.609 174.852 288.609 173.886 288.351Z" fill="url(#paint8_linear_0_73)"/>
</g>
<rect width="765" height="437" stroke="#979797"/>
<defs>
<filter id="filter0_d_0_73" x="272" y="128" width="224" height="224" filterUnits="userSpaceOnUse" color-interpolation-filters="sRGB">
<feFlood flood-opacity="0" result="BackgroundImageFix"/>
<feColorMatrix in="SourceAlpha" type="matrix" values="0 0 0 0 0 0 0 0 0 0 0 0 0 0 0 0 0 0 127 0" result="hardAlpha"/>
<feOffset dy="24"/>
<feGaussianBlur stdDeviation="24"/>
<feColorMatrix type="matrix" values="0 0 0 0 0.0980392 0 0 0 0 0.0980392 0 0 0 0 0.0980392 0 0 0 0.32 0"/>
<feBlend mode="normal" in2="BackgroundImageFix" result="effect1_dropShadow_0_73"/>
<feBlend mode="normal" in="SourceGraphic" in2="effect1_dropShadow_0_73" result="shape"/>
</filter>
<filter id="filter1_d_0_73" x="476.997" y="116.997" width="120.007" height="120.007" filterUnits="userSpaceOnUse" color-interpolation-filters="sRGB">
<feFlood flood-opacity="0" result="BackgroundImageFix"/>
<feColorMatrix in="SourceAlpha" type="matrix" values="0 0 0 0 0 0 0 0 0 0 0 0 0 0 0 0 0 0 127 0" result="hardAlpha"/>
<feMorphology radius="5" operator="erode" in="SourceAlpha" result="effect1_dropShadow_0_73"/>
<feOffset dy="20"/>
<feGaussianBlur stdDeviation="12.5"/>
<feColorMatrix type="matrix" values="0 0 0 0 0.0980392 0 0 0 0 0.0980392 0 0 0 0 0.0980392 0 0 0 0.16 0"/>
<feBlend mode="normal" in2="BackgroundImageFix" result="effect1_dropShadow_0_73"/>
<feBlend mode="normal" in="SourceGraphic" in2="effect1_dropShadow_0_73" result="shape"/>
</filter>
<filter id="filter2_d_0_73" x="175" y="260" width="106" height="106" filterUnits="userSpaceOnUse" color-interpolation-filters="sRGB">
<feFlood flood-opacity="0" result="BackgroundImageFix"/>
<feColorMatrix in="SourceAlpha" type="matrix" values="0 0 0 0 0 0 0 0 0 0 0 0 0 0 0 0 0 0 127 0" result="hardAlpha"/>
<feMorphology radius="5" operator="erode" in="SourceAlpha" result="effect1_dropShadow_0_73"/>
<feOffset dy="20"/>
<feGaussianBlur stdDeviation="12.5"/>
<feColorMatrix type="matrix" values="0 0 0 0 0.0980392 0 0 0 0 0.0980392 0 0 0 0 0.0980392 0 0 0 0.16 0"/>
<feBlend mode="normal" in2="BackgroundImageFix" result="effect1_dropShadow_0_73"/>
<feBlend mode="normal" in="SourceGraphic" in2="effect1_dropShadow_0_73" result="shape"/>
</filter>
<linearGradient id="paint0_linear_0_73" x1="256" y1="88" x2="256" y2="344" gradientUnits="userSpaceOnUse">
<stop stop-color="white"/>
<stop offset="0.774017" stop-color="#EAEAEA"/>
<stop offset="1" stop-color="#DFDFDF"/>
</linearGradient>
<linearGradient id="paint1_linear_0_73" x1="288.73" y1="120" x2="288.73" y2="310.541" gradientUnits="userSpaceOnUse">
<stop stop-color="white"/>
<stop offset="0.485697" stop-color="#EAEAEA"/>
<stop offset="1" stop-color="#DFDFDF" stop-opacity="0.01"/>
</linearGradient>
<radialGradient id="paint2_radial_0_73" cx="0" cy="0" r="1" gradientUnits="userSpaceOnUse" gradientTransform="translate(347.074 262.16) rotate(-50.9808) scale(102.325)">
<stop stop-color="#4FD1C5"/>
<stop offset="0.258711" stop-color="#81E6D9"/>
<stop offset="1" stop-color="#338CF5"/>
</radialGradient>
<linearGradient id="paint3_linear_0_73" x1="626.565" y1="369.003" x2="90" y2="369.003" gradientUnits="userSpaceOnUse">
<stop stop-color="white" stop-opacity="0.01"/>
<stop offset="0.459096" stop-color="white"/>
<stop offset="1" stop-color="white" stop-opacity="0.01"/>
</linearGradient>
<linearGradient id="paint4_linear_0_73" x1="626.565" y1="64.0032" x2="90" y2="64.0032" gradientUnits="userSpaceOnUse">
<stop stop-color="white" stop-opacity="0.01"/>
<stop offset="0.459096" stop-color="white"/>
<stop offset="1" stop-color="white" stop-opacity="0.01"/>
</linearGradient>
<linearGradient id="paint5_linear_0_73" x1="543.997" y1="296.565" x2="543.997" y2="-240" gradientUnits="userSpaceOnUse">
<stop stop-color="white" stop-opacity="0.01"/>
<stop offset="0.459096" stop-color="white"/>
<stop offset="1" stop-color="white" stop-opacity="0.01"/>
</linearGradient>
<linearGradient id="paint6_linear_0_73" x1="223.997" y1="668.565" x2="223.997" y2="132" gradientUnits="userSpaceOnUse">
<stop stop-color="white" stop-opacity="0.01"/>
<stop offset="0.459096" stop-color="white"/>
<stop offset="1" stop-color="white" stop-opacity="0.01"/>
</linearGradient>
<linearGradient id="paint7_linear_0_73" x1="449.916" y1="226.892" x2="496.701" y2="137.211" gradientUnits="userSpaceOnUse">
<stop stop-color="white" stop-opacity="0.88"/>
<stop offset="1" stop-color="white" stop-opacity="0.01"/>
</linearGradient>
<linearGradient id="paint8_linear_0_73" x1="305.567" y1="229.691" x2="270.061" y2="324.405" gradientUnits="userSpaceOnUse">
<stop stop-color="white" stop-opacity="0.88"/>
<stop offset="1" stop-color="white" stop-opacity="0.01"/>
</linearGradient>
<clipPath id="clip0_0_73">
<rect width="765" height="437" fill="white"/>
</clipPath>
</defs>
</svg>
